<svg width="33" height="32" viewBox="0 0 33 32" fill="none" xmlns="http://www.w3.org/2000/svg">
<path d="M11.0007 16.4444L14.2827 20L21.6673 12M10.7345 6.18243C11.6991 6.10546 12.6148 5.72615 13.3513 5.0985C15.0701 3.63383 17.5979 3.63383 19.3166 5.0985C20.0531 5.72615 20.9689 6.10546 21.9335 6.18243C24.1845 6.36206 25.9719 8.14953 26.1516 10.4005C26.2285 11.3651 26.6078 12.2809 27.2355 13.0174C28.7002 14.7361 28.7002 17.2639 27.2355 18.9826C26.6078 19.7191 26.2285 20.6349 26.1516 21.5995C25.9719 23.8505 24.1845 25.6379 21.9335 25.8176C20.9689 25.8945 20.0531 26.2739 19.3166 26.9015C17.5979 28.3662 15.0701 28.3662 13.3513 26.9015C12.6148 26.2739 11.6991 25.8945 10.7345 25.8176C8.48352 25.6379 6.69605 23.8505 6.51642 21.5995C6.43944 20.6349 6.06013 19.7191 5.43249 18.9826C3.96782 17.2639 3.96782 14.7361 5.43249 13.0174C6.06013 12.2809 6.43944 11.3651 6.51642 10.4005C6.69605 8.14953 8.48352 6.36206 10.7345 6.18243Z" stroke="#7AFF7A" stroke-width="2" stroke-linecap="round" stroke-linejoin="round"/>
</svg>
