<svg width="122" height="40" viewBox="0 0 122 40" fill="none" xmlns="http://www.w3.org/2000/svg">
<path d="M3.5815 4.38613C6.0332 1.66518 9.73939 0.399231 16.3154 0.0326195C17.5012 -0.0303917 23.5846 0.00397873 24.5928 0.0841751C29.6279 0.473701 32.6639 1.35013 34.9839 3.06862C37.4528 4.89595 38.9192 7.86893 39.5665 12.3485C39.8873 14.5768 39.9961 16.4671 39.9961 19.9958C39.9961 24.2232 39.8014 26.7208 39.2801 29.2298C38.6328 32.3402 37.5788 34.4712 35.866 36.1209C33.9012 38.0227 31.1459 39.1111 26.97 39.6381C24.5928 39.9417 21.0355 40.0677 17.8735 39.9646C15.6452 39.8959 14.912 39.85 13.5372 39.7011C6.14203 38.8877 2.55614 36.2412 1.00378 30.4499C0.236188 27.5858 -0.0502259 24.3092 0.00705682 19.0506C0.0471547 15.4647 0.19609 13.5113 0.597069 11.3174C1.14698 8.31574 2.15516 5.97287 3.5815 4.38613Z" fill="#7AFF7A"/>
<path fill-rule="evenodd" clip-rule="evenodd" d="M31.12 14.84C31.606 14.84 32 14.446 32 13.96V10.88C32 10.394 31.606 10 31.12 10H13.96C11.773 10 10 11.773 10 13.96V31.12C10 31.606 10.394 32 10.88 32H13.96C14.446 32 14.84 31.606 14.84 31.12V24.08V21.44C14.84 20.225 15.825 19.24 17.04 19.24C18.255 19.24 19.24 20.225 19.24 21.44C19.24 22.898 20.422 24.08 21.88 24.08H25.18C26.5165 24.08 27.6 22.9965 27.6 21.66C27.6 20.3235 26.5165 19.24 25.18 19.24H21.44C20.225 19.24 19.24 18.255 19.24 17.04C19.24 15.825 20.225 14.84 21.44 14.84H27.6H31.12Z" fill="#111111"/>
<path d="M49.082 19.8238V27.4138H51.2301H53.3782V24.3492V21.2845H57.3021H61.226V19.7952V18.3058H57.3021H53.3782V16.8737V15.4417H57.9609H62.5435V13.8377V12.2338H55.8127H49.082V19.8238Z" fill="white"/>
<path d="M67.5549 16.4793C65.4125 16.7486 63.4592 17.9114 62.7661 19.332C62.6286 19.6242 62.4567 20.1913 62.4968 20.2256C62.514 20.2428 66.2317 20.598 66.3405 20.598C66.3634 20.598 66.3806 20.5407 66.3806 20.4662C66.3806 20.2657 66.6212 19.9048 66.8847 19.6986C67.9158 18.9139 70.4248 19.1659 70.5966 20.071C70.7054 20.6323 70.2758 20.787 68.0704 20.999C67.3773 21.0677 66.5295 21.1708 66.1801 21.2281C63.9919 21.6062 62.8348 22.4024 62.514 23.7543C62.0557 25.7191 63.379 27.3688 65.6875 27.7068C66.352 27.7984 67.5893 27.7412 68.2136 27.5865C69.176 27.3516 69.9894 26.8361 70.4248 26.1888C70.5909 25.9367 70.6195 25.9196 70.6195 26.0399C70.6195 26.2862 70.7284 27.2199 70.7684 27.323C70.8028 27.4032 71.009 27.4147 72.8879 27.4147C74.0336 27.4147 74.973 27.4032 74.973 27.386C74.973 27.3688 74.9329 27.26 74.8871 27.1454C74.6579 26.5955 74.6121 26.0456 74.572 23.0898C74.5377 20.7469 74.5147 20.1626 74.4403 19.8762C73.9419 17.9572 72.275 16.7486 69.7717 16.4793C69.0958 16.4049 68.1392 16.4049 67.5549 16.4793ZM70.6195 22.8778C70.6195 23.8173 69.7717 24.6135 68.5058 24.8713C67.9444 24.9801 67.2398 24.9572 66.9649 24.814C66.5295 24.5906 66.4207 24.1323 66.7243 23.7886C66.9763 23.5022 67.3258 23.3762 68.6203 23.1184C69.2562 22.9924 69.9493 22.8263 70.1555 22.7518C70.3617 22.6773 70.5508 22.6143 70.5794 22.6086C70.6023 22.6029 70.6195 22.7289 70.6195 22.8778Z" fill="white"/>
<path d="M83.9548 16.4728C82.6946 16.6733 81.612 17.2404 80.8157 18.1225L80.472 18.5063V17.6299V16.7592H78.4958H76.5195V22.0865V27.4138H78.4958H80.472V24.9048C80.4778 22.2641 80.5064 21.7944 80.7012 21.2616C80.9475 20.6143 81.6578 20.0243 82.4426 19.8181C84.0465 19.3942 85.4442 20.1102 85.7363 21.5022C85.7764 21.7027 85.7993 22.7796 85.7993 24.607V27.4138H87.7813H89.7576L89.7404 23.7305C89.7117 19.5775 89.7347 19.7723 89.2535 18.7641C89.0358 18.3058 88.9155 18.1454 88.526 17.7616C87.85 17.0971 87.2314 16.7706 86.2347 16.553C85.7535 16.4441 84.4188 16.3983 83.9548 16.4728Z" fill="white"/>
<path d="M113.296 16.4787C110.753 16.7594 108.645 18.1113 107.786 20.0074C107.471 20.7062 107.379 21.1702 107.373 22.0868C107.368 22.9918 107.436 23.3584 107.746 24.1031C108.25 25.3347 109.464 26.4918 110.873 27.099C113.336 28.1588 116.665 27.9926 118.836 26.7038C120.531 25.6956 121.482 24.189 121.585 22.3732C121.711 20.0074 120.279 17.9967 117.753 16.9943C116.544 16.5188 114.786 16.3126 113.296 16.4787ZM115.588 19.6121C116.103 19.7954 116.361 19.9444 116.716 20.2766C117.776 21.2562 117.81 22.8257 116.791 23.8683C116.069 24.6072 114.826 24.9395 113.686 24.6931C112.082 24.3552 111.114 22.9403 111.492 21.4853C111.738 20.5401 112.489 19.847 113.583 19.5377C114.03 19.4174 115.152 19.4575 115.588 19.6121Z" fill="white"/>
<path d="M96.5682 16.5355C95.5829 16.6501 94.4373 17.0282 93.6525 17.4979C92.7302 18.0478 92.0944 18.7295 91.6476 19.6517C91.2982 20.3563 91.1836 20.8604 91.1836 21.6566C91.1836 22.0003 91.2237 22.4471 91.2752 22.6763C91.3955 23.2205 91.8481 24.1427 92.2261 24.6067C93.0739 25.6378 94.4773 26.4054 96.0813 26.7033C96.7801 26.835 98.3726 26.8522 99.0313 26.7319C99.9822 26.5601 100.813 26.2221 101.489 25.7237L101.855 25.4545L101.821 25.9872C101.718 27.6312 100.767 28.4676 98.7736 28.6795C97.0608 28.8628 95.5142 28.3702 94.9528 27.4651L94.7809 27.1959L94.2883 27.3334C94.0134 27.4078 93.24 27.6198 92.5756 27.7974C91.7621 28.0093 91.3554 28.1468 91.3554 28.1926C91.3554 28.5249 91.8882 29.3726 92.3808 29.8309C93.2229 30.61 94.3112 31.0797 95.9381 31.3776C96.8431 31.5437 99.0256 31.5551 99.9937 31.4062C101.804 31.1198 103.179 30.5355 104.164 29.6247C104.886 28.9659 105.338 28.2098 105.63 27.2131L105.756 26.7548L105.779 21.754L105.796 16.7589H103.82H101.844L101.827 17.2974L101.81 17.8358L101.466 17.5781C100.337 16.7188 98.4642 16.3178 96.5682 16.5355ZM99.7531 19.5658C100.675 19.8007 101.351 20.2646 101.649 20.8718C101.787 21.1468 101.81 21.2728 101.81 21.6566C101.81 22.0404 101.787 22.1664 101.649 22.4414C101.357 23.0314 100.71 23.484 99.8046 23.7245C99.249 23.8677 97.9544 23.8735 97.4331 23.7245C96.6025 23.4954 95.9552 23.02 95.6688 22.4357C95.5314 22.1664 95.5084 22.0404 95.5084 21.6566C95.5142 21.0552 95.6631 20.7172 96.1042 20.2933C96.7286 19.6975 97.4274 19.457 98.5788 19.457C99.1172 19.4512 99.4151 19.4799 99.7531 19.5658Z" fill="white"/>
</svg>
