<svg width="42" height="48" viewBox="0 0 42 48" fill="none" xmlns="http://www.w3.org/2000/svg">
<g clip-path="url(#clip0_612_974)">
<path fill-rule="evenodd" clip-rule="evenodd" d="M25.1306 17.0986C26.5989 16.3664 28.4672 15.2886 30.3378 13.812C30.7322 14.631 30.7754 15.3458 30.5722 15.9229C30.4282 16.3296 30.1568 16.6834 29.8 16.9648C29.4136 17.269 28.9311 17.4904 28.3976 17.6101C27.3855 17.8381 26.2037 17.705 25.1306 17.0986ZM25.3852 24.6003L27.3288 25.723C23.3602 27.9474 22.2813 32.0776 20.9997 36.1005C19.7183 32.0776 18.6392 27.9474 14.6708 25.723L16.6144 24.6003C16.8025 24.5293 16.9632 24.4005 17.0735 24.2325C17.1839 24.0645 17.2383 23.8659 17.2288 23.6651C17.0508 19.8976 18.068 18.2315 19.4402 17.1854C19.9324 16.8107 20.4696 16.6226 20.9997 16.6226C21.5298 16.6226 22.0671 16.8107 22.5594 17.1854C23.9316 18.2315 24.9488 19.8976 24.7708 23.6651C24.7613 23.8659 24.8157 24.0645 24.9261 24.2325C25.0364 24.4005 25.1971 24.5293 25.3852 24.6003ZM20.9997 0C23.2464 0.06032 25.4988 0.49648 27.4535 1.34496C28.8071 1.93328 30.0701 2.7104 31.2138 3.63968C31.7303 4.0592 32.1556 4.46448 32.624 4.93104C33.8876 4.97472 35.7341 3.57104 36.5914 2.2576C35.116 7.0944 28.3836 12.8062 23.7226 14.9918C23.7207 14.991 23.7194 14.9899 23.718 14.989C22.8815 14.3502 21.9407 14.0309 20.9997 14.0309C20.0588 14.0309 19.1181 14.3502 18.2816 14.989C18.2802 14.9898 18.2789 14.9912 18.277 14.9918C13.6159 12.8062 6.88356 7.0944 5.4082 2.2576C6.26532 3.57104 8.11188 4.97472 9.3754 4.93104C9.84404 4.46464 10.2693 4.0592 10.7856 3.63968C11.9293 2.7104 13.1924 1.93328 14.546 1.34496C16.5008 0.49648 18.7532 0.06032 20.9997 0ZM16.8688 17.0986C15.4007 16.3664 13.5322 15.2886 11.6618 13.812C11.2674 14.631 11.2242 15.3458 11.4272 15.9229C11.5714 16.3296 11.8428 16.6834 12.1994 16.9648C12.586 17.269 13.0685 17.4904 13.602 17.6101C14.6141 17.8381 15.7957 17.705 16.8688 17.0986Z" fill="#F5F5F5" fill-opacity="0.24"/>
<path fill-rule="evenodd" clip-rule="evenodd" d="M32.3866 12.0025C33.4163 10.9633 34.3237 9.81302 35.0533 8.78662L35.4238 9.48406C36.6168 11.8708 37.2366 14.2479 37.2366 16.9231L37.2341 21.1682L37.2565 23.3689C37.3429 28.7714 38.5118 34.2375 41.1598 39.2397L35.6195 34.7722L31.6994 41.1337L27.581 37.2567L20.9998 47.9365L14.4187 37.2569L10.3005 41.1338L6.38032 34.7724L0.839844 39.2399C3.48784 34.2377 4.6568 28.7716 4.74336 23.369L4.76576 21.1684L4.7632 16.9233C4.7632 14.2479 5.38288 11.8708 6.57616 9.48422L6.94656 8.78678C7.67616 9.81318 8.58336 10.9633 9.61328 12.0026L9.29168 12.6706C8.66688 13.9681 8.46 15.4188 8.94672 16.7985C9.26048 17.6871 9.83312 18.4492 10.5714 19.0309C11.2882 19.5959 12.1365 19.9767 13.0246 20.1767C13.6032 20.3069 14.1926 20.3605 14.7782 20.3423C14.6416 21.1169 14.5819 21.9202 14.5781 22.7388L9.35184 25.7573L13.3848 28.018C13.7071 28.1987 14.014 28.4058 14.3022 28.637C17.6272 31.6223 19.6262 40.4538 21 44.7676C22.3739 40.4538 24.3728 31.6223 27.6979 28.637C27.9861 28.4057 28.293 28.1987 28.6154 28.018L32.6483 25.7573L27.4219 22.7388C27.4181 21.9202 27.3584 21.1169 27.2218 20.3423C27.8074 20.3605 28.3968 20.3069 28.9754 20.1767C29.8635 19.9767 30.712 19.5959 31.4286 19.0309C32.1667 18.4492 32.7395 17.6871 33.0531 16.7985C33.54 15.4188 33.333 13.9682 32.7083 12.6706L32.3867 12.0026L32.3866 12.0025Z" fill="#F5F5F5" fill-opacity="0.24"/>
</g>
<defs>
<clipPath id="clip0_612_974">
<rect width="40.32" height="48" fill="white" transform="translate(0.839844)"/>
</clipPath>
</defs>
</svg>
