<svg width="33" height="32" viewBox="0 0 33 32" fill="none" xmlns="http://www.w3.org/2000/svg">
<path d="M27.23 8.99986H24.7486L18.6606 15.0852C18.8703 15.6196 18.8896 16.2099 18.7152 16.7568C18.5409 17.3037 18.1835 17.774 17.7032 18.0884C17.2229 18.4028 16.649 18.5423 16.078 18.4833C15.507 18.4244 14.9737 18.1706 14.5678 17.7647C14.1619 17.3588 13.9081 16.8255 13.8492 16.2545C13.7902 15.6834 13.9297 15.1095 14.2441 14.6293C14.5585 14.149 15.0287 13.7916 15.5757 13.6173C16.1226 13.4429 16.7129 13.4622 17.2473 13.6719L23.334 7.5852V5.10386C23.3341 4.77184 23.466 4.45342 23.7006 4.21853L26.0073 1.91186C26.05 1.8689 26.1036 1.83838 26.1623 1.82358C26.221 1.80878 26.2827 1.81026 26.3406 1.82786C26.4593 1.86253 26.5473 1.9612 26.5713 2.08253L27.1846 5.15053L30.2513 5.76386C30.3713 5.78786 30.47 5.87586 30.5046 5.99453C30.5221 6.05218 30.5237 6.11349 30.5091 6.17195C30.4946 6.23041 30.4645 6.28383 30.422 6.32653L28.114 8.6332C27.8794 8.86754 27.5615 8.99938 27.23 8.99986Z" fill="#7AFF7A"/>
<path d="M3.83398 16C3.83398 19.3152 5.15094 22.4946 7.49515 24.8388C9.83935 27.183 13.0188 28.5 16.334 28.5C17.9755 28.5 19.601 28.1767 21.1175 27.5485C22.6341 26.9203 24.0121 25.9996 25.1728 24.8388C26.3336 23.6781 27.2543 22.3001 27.8825 20.7836C28.5107 19.267 28.834 17.6415 28.834 16C28.834 14.8027 28.666 13.6453 28.3527 12.5507C28.2904 12.2993 28.328 12.0336 28.4577 11.8095C28.5873 11.5853 28.7989 11.4202 29.0478 11.3489C29.2967 11.2775 29.5636 11.3055 29.7923 11.427C30.021 11.5484 30.1937 11.7538 30.274 12C30.6393 13.272 30.834 14.6133 30.834 16C30.834 24.008 24.342 30.5 16.334 30.5C8.32598 30.5 1.83398 24.008 1.83398 16C1.83398 7.99201 8.32598 1.50001 16.334 1.50001C17.6873 1.49867 19.0327 1.68667 20.334 2.05867C20.4609 2.09427 20.5795 2.15459 20.683 2.23617C20.7865 2.31775 20.8728 2.41898 20.937 2.53404C21.0013 2.64911 21.0421 2.77573 21.0573 2.90664C21.0724 3.03755 21.0615 3.17016 21.0252 3.29685C20.989 3.42353 20.928 3.5418 20.8458 3.64485C20.7637 3.74789 20.662 3.83369 20.5466 3.8973C20.4312 3.96091 20.3043 4.00108 20.1733 4.0155C20.0424 4.02993 19.9098 4.01832 19.7833 3.98134C18.6615 3.66115 17.5006 3.49914 16.334 3.50001C13.0188 3.50001 9.83935 4.81697 7.49515 7.16117C5.15094 9.50538 3.83398 12.6848 3.83398 16Z" fill="#7AFF7A"/>
<path d="M9.83429 16.0002C9.83801 16.8833 10.0217 17.7564 10.3741 18.5661C10.7265 19.3759 11.2402 20.1053 11.884 20.7099C12.5277 21.3144 13.2879 21.7815 14.1181 22.0824C14.9483 22.3834 15.8312 22.512 16.7128 22.4604C17.5944 22.4088 18.4562 22.178 19.2456 21.7822C20.0351 21.3864 20.7356 20.8338 21.3043 20.1582C21.8731 19.4827 22.2982 18.6983 22.5537 17.8529C22.8091 17.0076 22.8897 16.119 22.7903 15.2415C22.7623 15.0638 22.7829 14.8818 22.8499 14.7149C22.9169 14.5479 23.0278 14.4022 23.1709 14.2931C23.314 14.1841 23.4839 14.1158 23.6627 14.0954C23.8414 14.0751 24.0224 14.1034 24.1863 14.1775C24.521 14.3269 24.7463 14.6455 24.7756 15.0109C24.9827 16.7645 24.6382 18.5391 23.7901 20.088C22.9421 21.6369 21.6326 22.8831 20.0436 23.6533C18.4546 24.4236 16.6651 24.6798 14.9239 24.3861C13.1826 24.0925 11.5761 23.2637 10.3276 22.0149C9.07949 20.7674 8.25046 19.1625 7.95553 17.4227C7.66059 15.6829 7.91437 13.8944 8.68166 12.3053C9.44894 10.7162 10.6917 9.4053 12.2376 8.55432C13.7835 7.70335 15.5559 7.35452 17.309 7.55621C17.4415 7.56851 17.5702 7.60713 17.6876 7.66983C17.805 7.73253 17.9087 7.81803 17.9927 7.92132C18.0766 8.02462 18.1391 8.14363 18.1764 8.27138C18.2137 8.39913 18.2252 8.53305 18.2101 8.66529C18.195 8.79753 18.1537 8.92543 18.0885 9.04148C18.0234 9.15754 17.9357 9.25942 17.8307 9.34116C17.7256 9.42289 17.6053 9.48283 17.4768 9.51747C17.3483 9.55211 17.2142 9.56075 17.0823 9.54288C16.1717 9.4376 15.2491 9.52608 14.375 9.80253C13.501 10.079 12.6953 10.5371 12.0109 11.1469C11.3264 11.7567 10.7787 12.5044 10.4035 13.3408C10.0284 14.1772 9.83443 15.0835 9.83429 16.0002Z" fill="#7AFF7A"/>
</svg>
