<svg width="32" height="32" viewBox="0 0 32 32" fill="none" xmlns="http://www.w3.org/2000/svg">
<path d="M16.0004 2.66674C17.5377 2.66674 18.987 3.0534 20.2524 3.7334C20.151 4.32674 19.9537 4.74674 19.6844 5.0174C19.5172 5.17975 19.319 5.30672 19.1017 5.39074C18.2697 4.99992 17.3688 4.77682 16.4505 4.73417C15.5322 4.69152 14.6145 4.83015 13.7498 5.14216C12.8851 5.45416 12.0904 5.93343 11.4109 6.55259C10.7314 7.17175 10.1805 7.91868 9.78971 8.75074C9.3989 9.58279 9.17579 10.4837 9.13314 11.402C9.09049 12.3202 9.22913 13.2379 9.54113 14.1026C9.85314 14.9673 10.3324 15.7621 10.9516 16.4416C11.5707 17.121 12.3177 17.6719 13.1497 18.0627C14.0679 18.4192 14.915 18.6178 15.691 18.6587L16.0004 18.6667C16.8608 18.6667 17.8106 18.4658 18.8497 18.0641C20.065 17.5183 21.1013 16.6401 21.839 15.5307C22.6924 15.8241 23.7177 15.6454 24.3644 14.9961C23.8141 16.3754 22.9315 17.5974 21.795 18.5534L23.9564 25.0401C24.1285 25.5563 24.1147 26.1164 23.9175 26.6236C23.7203 27.1308 23.352 27.553 22.8764 27.8174C21.0484 28.8347 18.7524 29.3334 16.0004 29.3334C13.2484 29.3334 10.9524 28.8347 9.12438 27.8174C8.64875 27.553 8.28049 27.1308 8.08327 26.6236C7.88606 26.1164 7.8723 25.5563 8.04438 25.0401L10.2057 18.5534C8.79319 17.3649 7.78029 15.7709 7.30432 13.9873C6.82834 12.2037 6.91233 10.317 7.54489 8.58273C8.17745 6.84851 9.32798 5.35074 10.8405 4.29248C12.353 3.23422 14.1544 2.66666 16.0004 2.66674ZM20.0764 19.7214L19.5964 19.9201L19.5724 19.9307C18.5796 20.3604 17.517 20.6062 16.4364 20.6561H16.4137L16.3164 20.6614L16.0004 20.6667L15.739 20.6614L15.5657 20.6547C14.4847 20.6054 13.4217 20.3601 12.4284 19.9307L12.4044 19.9201C12.2432 19.8567 12.0832 19.7905 11.9244 19.7214L9.94171 25.6734C9.91725 25.7469 9.91917 25.8267 9.94716 25.899C9.97514 25.9713 10.0274 26.0315 10.095 26.0694C11.6017 26.9054 13.5657 27.3334 16.0004 27.3334C18.435 27.3334 20.4004 26.9067 21.9057 26.0694C21.9733 26.0315 22.0256 25.9713 22.0536 25.899C22.0816 25.8267 22.0835 25.7469 22.059 25.6734L20.0764 19.7214ZM15.587 20.6574L15.739 20.6614L15.783 20.6641L16.0004 20.6667C15.8617 20.6667 15.7239 20.6636 15.587 20.6574ZM23.9897 2.50674L24.0004 2.66674C24.0004 4.20007 24.3604 5.28007 25.0404 5.96007C25.6684 6.58673 26.6377 6.94274 27.987 6.9934L28.3337 7.00007C29.611 7.00007 29.6644 8.8374 28.4937 8.9894L28.3337 9.00007C26.8004 9.00007 25.7204 9.36007 25.0404 10.0401C24.4137 10.6694 24.0577 11.6374 24.007 12.9867L24.0004 13.3334C24.0004 14.6667 22.0004 14.6667 22.0004 13.3334C22.0004 11.8001 21.6404 10.7201 20.9604 10.0401C20.331 9.4134 19.363 9.0574 18.0137 9.00674L17.667 9.00007C16.3897 9.00007 16.3364 7.16274 17.507 7.01074L17.667 7.00007C19.2004 7.00007 20.2804 6.64007 20.9604 5.96007C21.6404 5.28007 22.0004 4.20007 22.0004 2.66674C22.0004 1.3894 23.8377 1.33607 23.9897 2.50674ZM23.0004 6.60407L22.8084 6.87474C22.4745 7.31657 22.0667 7.6973 21.603 8.00007C22.1606 8.3635 22.6364 8.8389 23.0004 9.39607C23.364 8.83903 23.8393 8.36365 24.3964 8.00007C23.9332 7.69717 23.5258 7.31645 23.1924 6.87474L23.0004 6.60407Z" fill="#7AFF7A"/>
</svg>
