<svg width="33" height="32" viewBox="0 0 33 32" fill="none" xmlns="http://www.w3.org/2000/svg">
<path d="M15.6581 5.5655C15.9667 4.67761 16.121 4.23366 16.3492 4.11063C16.5467 4.00414 16.7845 4.00414 16.982 4.11063C17.2102 4.23366 17.3645 4.67761 17.6731 5.5655L19.7135 11.4354C19.8013 11.6881 19.8453 11.8144 19.9244 11.9085C19.9943 11.9916 20.0835 12.0564 20.1841 12.0972C20.2981 12.1434 20.4318 12.1461 20.6993 12.1516L26.9124 12.2782C27.8522 12.2973 28.3221 12.3069 28.5096 12.4859C28.6719 12.6408 28.7454 12.867 28.7052 13.0877C28.6586 13.3428 28.2841 13.6267 27.5351 14.1946L22.583 17.949C22.3698 18.1106 22.2632 18.1915 22.1982 18.2958C22.1407 18.388 22.1067 18.4928 22.099 18.6011C22.0903 18.7238 22.129 18.8518 22.2065 19.1079L24.006 25.056C24.2782 25.9557 24.4143 26.4056 24.302 26.6393C24.2048 26.8415 24.0124 26.9813 23.7901 27.0112C23.5331 27.0458 23.1473 26.7773 22.3758 26.2404L17.2749 22.6909C17.0553 22.5381 16.9455 22.4617 16.8261 22.4321C16.7207 22.4059 16.6105 22.4059 16.5051 22.4321C16.3857 22.4617 16.2759 22.5381 16.0563 22.6909L10.9554 26.2404C10.1839 26.7773 9.79808 27.0458 9.54115 27.0112C9.31879 26.9813 9.12639 26.8415 9.02921 26.6393C8.91692 26.4056 9.05302 25.9557 9.32522 25.056L11.1247 19.1079C11.2022 18.8518 11.241 18.7238 11.2322 18.6011C11.2245 18.4928 11.1905 18.388 11.133 18.2958C11.068 18.1915 10.9614 18.1106 10.7482 17.949L5.79615 14.1946C5.04709 13.6267 4.67256 13.3428 4.62606 13.0877C4.58581 12.867 4.6593 12.6408 4.8216 12.4859C5.00913 12.3069 5.47904 12.2973 6.41884 12.2782L12.6319 12.1516C12.8994 12.1461 13.0331 12.1434 13.1471 12.0972C13.2477 12.0564 13.3369 11.9916 13.4068 11.9085C13.486 11.8144 13.5299 11.6881 13.6177 11.4354L15.6581 5.5655Z" stroke="#7AFF7A" stroke-width="2" stroke-linecap="round" stroke-linejoin="round"/>
</svg>
